<svg width="256" height="256" viewBox="0 0 256 256" xmlns="http://www.w3.org/2000/svg" role="img">
  <defs>
    <linearGradient id="g" x1="0" x2="1" y1="0" y2="1">
      <stop offset="0%" stop-color="#59D0FF"/>
      <stop offset="100%" stop-color="#8A7CFF"/>
    </linearGradient>
    <filter id="s" x="-50%" y="-50%" width="200%" height="200%">
      <feDropShadow dx="0" dy="8" stdDeviation="12" flood-color="#59D0FF" flood-opacity=".35"/>
    </filter>
  </defs>
  <rect rx="56" ry="56" x="8" y="8" width="240" height="240" fill="#0f1221" stroke="url(#g)" stroke-width="4"/>
  <g filter="url(#s)">
    <path d="M128 48c-35 0-64 29-64 64v32c0 35 29 64 64 64s64-29 64-64v-4h-28v4c0 20-16 36-36 36s-36-16-36-36v-32c0-20 16-36 36-36s36 16 36 36v4h28v-4c0-35-29-64-64-64z" fill="url(#g)"/>
    <circle cx="128" cy="144" r="18" fill="#0f1221" stroke="url(#g)" stroke-width="6"/>
  </g>
</svg>


